HIERARCHY
ROOT __0
{
	OFFSET 0.0 0.0 0.0
	CHANNELS 0
	JOINT Hips
	{
		OFFSET 0.000000 0.000000 0.000000
		CHANNELS 6 Xposition Yposition Zposition Xrotation Yrotation Zrotation
		JOINT Spine
		{
			OFFSET 10.005940 -0.000000 0.000014
			CHANNELS 6 Xposition Yposition Zposition Xrotation Yrotation Zrotation
			JOINT Spine1
			{
				OFFSET 21.665001 -0.000000 -0.000000
				CHANNELS 6 Xposition Yposition Zposition Xrotation Yrotation Zrotation
				JOINT Neck
				{
					OFFSET 25.833000 0.000000 -0.000000
					CHANNELS 6 Xposition Yposition Zposition Xrotation Yrotation Zrotation
					JOINT Head
					{
						OFFSET 14.033596 -0.000000 0.000000
						CHANNELS 6 Xposition Yposition Zposition Xrotation Yrotation Zrotation
						JOINT HeadNub
						{
							OFFSET 21.600510 0.000000 0.000000
							CHANNELS 6 Xposition Yposition Zposition Xrotation Yrotation Zrotation
							End Site
							{
								OFFSET 0.000000 21.600510 0.000000
							}
						}
					}
				}
				JOINT LeftShoulder
				{
					OFFSET 21.665001 -0.000000 3.045000
					CHANNELS 6 Xposition Yposition Zposition Xrotation Yrotation Zrotation
					JOINT LeftArm
					{
						OFFSET 0.000000 -0.000000 15.550001
						CHANNELS 6 Xposition Yposition Zposition Xrotation Yrotation Zrotation
						JOINT LeftForeArm
						{
							OFFSET -19.070633 0.000002 19.070707
							CHANNELS 6 Xposition Yposition Zposition Xrotation Yrotation Zrotation
							JOINT LeftHand
							{
								OFFSET -18.782471 0.000001 18.782467
								CHANNELS 6 Xposition Yposition Zposition Xrotation Yrotation Zrotation
								JOINT LeftHandThumb1
								{
									OFFSET -4.939494 -1.249041 0.422050
									CHANNELS 6 Xposition Yposition Zposition Xrotation Yrotation Zrotation
									JOINT LeftHandThumb2
									{
										OFFSET -2.517302 0.000000 2.517300
										CHANNELS 6 Xposition Yposition Zposition Xrotation Yrotation Zrotation
										JOINT LeftHandThumb3
										{
											OFFSET -1.826117 0.000000 1.826115
											CHANNELS 6 Xposition Yposition Zposition Xrotation Yrotation Zrotation
											End Site
											{
												OFFSET 0.000000 -2.582519 0.000000
											}
										}
									}
								}
								JOINT LeftHandIndex1
								{
									OFFSET -8.597697 0.000001 5.278145
									CHANNELS 6 Xposition Yposition Zposition Xrotation Yrotation Zrotation
									JOINT LeftHandIndex2
									{
										OFFSET -2.302887 0.000000 2.302887
										CHANNELS 6 Xposition Yposition Zposition Xrotation Yrotation Zrotation
										JOINT LeftHandIndex3
										{
											OFFSET -1.960194 0.000000 1.960197
											CHANNELS 6 Xposition Yposition Zposition Xrotation Yrotation Zrotation
											End Site
											{
												OFFSET -0.000000 -2.772133 0.000000
											}
										}
									}
								}
								JOINT LeftHandMiddle1
								{
									OFFSET -7.533892 0.000001 7.091263
									CHANNELS 6 Xposition Yposition Zposition Xrotation Yrotation Zrotation
									JOINT LeftHandMiddle2
									{
										OFFSET -2.425842 0.000000 2.425842
										CHANNELS 6 Xposition Yposition Zposition Xrotation Yrotation Zrotation
										JOINT LeftHandMiddle3
										{
											OFFSET -2.089242 0.000000 2.089241
											CHANNELS 6 Xposition Yposition Zposition Xrotation Yrotation Zrotation
											End Site
											{
												OFFSET -0.000000 -2.954633 0.000000
											}
										}
									}
								}
								JOINT LeftHandRing1
								{
									OFFSET -5.804094 0.000001 8.321640
									CHANNELS 6 Xposition Yposition Zposition Xrotation Yrotation Zrotation
									JOINT LeftHandRing2
									{
										OFFSET -2.291877 0.000000 2.291878
										CHANNELS 6 Xposition Yposition Zposition Xrotation Yrotation Zrotation
										JOINT LeftHandRing3
										{
											OFFSET -1.953971 0.000000 1.953972
											CHANNELS 6 Xposition Yposition Zposition Xrotation Yrotation Zrotation
											End Site
											{
												OFFSET -0.000000 -2.763332 0.000000
											}
										}
									}
								}
								JOINT LeftHandPinky1
								{
									OFFSET -3.770287 0.000000 8.934921
									CHANNELS 6 Xposition Yposition Zposition Xrotation Yrotation Zrotation
									JOINT LeftHandPinky2
									{
										OFFSET -1.968662 0.000000 1.968666
										CHANNELS 6 Xposition Yposition Zposition Xrotation Yrotation Zrotation
										JOINT LeftHandPinky3
										{
											OFFSET -1.410385 0.000000 1.410385
											CHANNELS 6 Xposition Yposition Zposition Xrotation Yrotation Zrotation
											End Site
											{
												OFFSET 0.000000 -1.994586 0.000000
											}
										}
									}
								}
							}
						}
					}
				}
				JOINT RightShoulder
				{
					OFFSET 21.665001 -0.000000 -3.045000
					CHANNELS 6 Xposition Yposition Zposition Xrotation Yrotation Zrotation
					JOINT RightArm
					{
						OFFSET 0.000057 -0.000000 -15.549999
						CHANNELS 6 Xposition Yposition Zposition Xrotation Yrotation Zrotation
						JOINT RightForeArm
						{
							OFFSET -19.070633 0.000002 -19.070709
							CHANNELS 6 Xposition Yposition Zposition Xrotation Yrotation Zrotation
							JOINT RightHand
							{
								OFFSET -18.782467 0.000002 -18.782467
								CHANNELS 6 Xposition Yposition Zposition Xrotation Yrotation Zrotation
								JOINT RightHandThumb1
								{
									OFFSET -4.939487 -1.249050 -0.422047
									CHANNELS 6 Xposition Yposition Zposition Xrotation Yrotation Zrotation
									JOINT RightHandThumb2
									{
										OFFSET -2.517301 0.000000 -2.517300
										CHANNELS 6 Xposition Yposition Zposition Xrotation Yrotation Zrotation
										JOINT RightHandThumb3
										{
											OFFSET -1.826117 0.000000 -1.826115
											CHANNELS 6 Xposition Yposition Zposition Xrotation Yrotation Zrotation
											End Site
											{
												OFFSET 0.000000 -2.582519 0.000000
											}
										}
									}
								}
								JOINT RightHandIndex1
								{
									OFFSET -8.597696 -0.000003 -5.278137
									CHANNELS 6 Xposition Yposition Zposition Xrotation Yrotation Zrotation
									JOINT RightHandIndex2
									{
										OFFSET -2.302887 0.000000 -2.302883
										CHANNELS 6 Xposition Yposition Zposition Xrotation Yrotation Zrotation
										JOINT RightHandIndex3
										{
											OFFSET -1.960194 0.000000 -1.960197
											CHANNELS 6 Xposition Yposition Zposition Xrotation Yrotation Zrotation
											End Site
											{
												OFFSET -0.000000 -2.772133 0.000000
											}
										}
									}
								}
								JOINT RightHandMiddle1
								{
									OFFSET -7.533897 -0.000002 -7.091248
									CHANNELS 6 Xposition Yposition Zposition Xrotation Yrotation Zrotation
									JOINT RightHandMiddle2
									{
										OFFSET -2.425842 0.000000 -2.425838
										CHANNELS 6 Xposition Yposition Zposition Xrotation Yrotation Zrotation
										JOINT RightHandMiddle3
										{
											OFFSET -2.089242 0.000000 -2.089241
											CHANNELS 6 Xposition Yposition Zposition Xrotation Yrotation Zrotation
											End Site
											{
												OFFSET -0.000000 -2.954633 0.000000
											}
										}
									}
								}
								JOINT RightHandRing1
								{
									OFFSET -5.804094 -0.000003 -8.321636
									CHANNELS 6 Xposition Yposition Zposition Xrotation Yrotation Zrotation
									JOINT RightHandRing2
									{
										OFFSET -2.291877 0.000000 -2.291878
										CHANNELS 6 Xposition Yposition Zposition Xrotation Yrotation Zrotation
										JOINT RightHandRing3
										{
											OFFSET -1.953971 0.000000 -1.953972
											CHANNELS 6 Xposition Yposition Zposition Xrotation Yrotation Zrotation
											End Site
											{
												OFFSET -0.000000 -2.763332 0.000000
											}
										}
									}
								}
								JOINT RightHandPinky1
								{
									OFFSET -3.770285 -0.000004 -8.934925
									CHANNELS 6 Xposition Yposition Zposition Xrotation Yrotation Zrotation
									JOINT RightHandPinky2
									{
										OFFSET -1.968663 0.000000 -1.968666
										CHANNELS 6 Xposition Yposition Zposition Xrotation Yrotation Zrotation
										JOINT RightHandPinky3
										{
											OFFSET -1.410385 0.000000 -1.410385
											CHANNELS 6 Xposition Yposition Zposition Xrotation Yrotation Zrotation
											End Site
											{
												OFFSET 0.000000 -1.994586 0.000000
											}
										}
									}
								}
							}
						}
					}
				}
			}
		}
		JOINT LeftUpLeg
		{
			OFFSET -0.000015 0.000018 9.994125
			CHANNELS 6 Xposition Yposition Zposition Xrotation Yrotation Zrotation
			JOINT LeftLeg
			{
				OFFSET 41.202610 0.000001 0.000001
				CHANNELS 6 Xposition Yposition Zposition Xrotation Yrotation Zrotation
				JOINT LeftFoot
				{
					OFFSET 40.704845 0.000000 -0.000001
					CHANNELS 6 Xposition Yposition Zposition Xrotation Yrotation Zrotation
					JOINT LeftToeBase
					{
						OFFSET 8.953568 12.877190 0.000000
						CHANNELS 6 Xposition Yposition Zposition Xrotation Yrotation Zrotation
						JOINT LeftToeNub
						{
							OFFSET 5.535667 0.000000 0.000000
							CHANNELS 6 Xposition Yposition Zposition Xrotation Yrotation Zrotation
							End Site
							{
								OFFSET 0.000000 5.535664 0.000000
							}
						}
					}
				}
			}
		}
		JOINT RightUpLeg
		{
			OFFSET 0.000015 -0.000010 -9.994125
			CHANNELS 6 Xposition Yposition Zposition Xrotation Yrotation Zrotation
			JOINT RightLeg
			{
				OFFSET 41.202610 0.000000 0.000001
				CHANNELS 6 Xposition Yposition Zposition Xrotation Yrotation Zrotation
				JOINT RightFoot
				{
					OFFSET 40.704845 0.000000 -0.000001
					CHANNELS 6 Xposition Yposition Zposition Xrotation Yrotation Zrotation
					JOINT RightToeBase
					{
						OFFSET 8.953568 12.877190 0.000000
						CHANNELS 6 Xposition Yposition Zposition Xrotation Yrotation Zrotation
						JOINT RightToeNub
						{
							OFFSET 5.535667 0.000000 0.000000
							CHANNELS 6 Xposition Yposition Zposition Xrotation Yrotation Zrotation
							End Site
							{
								OFFSET 0.000000 5.535664 0.000000
							}
						}
					}
				}
			}
		}
	}
	JOINT Prop
	{
		OFFSET 0.000000 0.000000 0.000000
		CHANNELS 6 Xposition Yposition Zposition Xrotation Yrotation Zrotation
		End Site
		{
			OFFSET 0.000000 1.000000 0.000000
		}
	}
}
MOTION
Frames: 4
Frame Time: 0.008333
0.000000 91.195999 -0.000000 -0.000000 90.000003 90.000003 10.005943 -0.000000 0.000014 -0.000000 -0.000000 0.000000 21.665012 -0.000000 -0.000000 -0.000000 -0.000000 0.000000 25.833012 0.000000 -0.000000 -0.000000 0.000000 10.000001 14.033573 -0.000000 -0.000000 0.000000 0.000000 -10.000001 21.600525 0.000000 0.000000 -0.000000 -0.000000 0.000000 21.665012 -0.000000 3.045000 -0.000000 -0.000000 0.000000 0.000013 -0.000000 15.549999 0.000008 45.000005 -0.000003 -19.070644 0.000002 19.070696 -0.000001 -0.000005 -0.000001 -18.782459 0.000004 18.782457 54.735616 -29.999997 -54.735620 -4.939493 -1.249037 0.422049 54.735613 -30.000008 -54.735613 -2.517314 0.000000 2.517299 -0.000000 -0.000009 -0.000000 -1.826119 0.000000 1.826122 0.000000 -0.000002 -0.000000 -8.597697 0.000004 5.278145 0.000000 -0.000002 0.000000 -2.302892 -0.000013 2.302886 -0.000000 -0.000005 -0.000000 -1.960190 0.000018 1.960182 -0.000000 -0.000009 0.000000 -7.533890 0.000003 7.091259 -0.000000 -0.000002 -0.000000 -2.425846 -0.000012 2.425849 0.000000 -0.000007 0.000000 -2.089242 0.000002 2.089264 -0.000000 -0.000003 -0.000000 -5.804088 0.000004 8.321640 0.000000 -0.000002 -0.000000 -2.291874 -0.000013 2.291877 -0.000000 -0.000005 -0.000000 -1.953977 0.000018 1.953980 0.000000 -0.000007 -0.000000 -3.770285 0.000004 8.934914 0.000000 -0.000002 0.000000 -1.968671 0.000004 1.968665 0.000000 -0.000005 0.000000 -1.410387 0.000019 1.410370 0.000000 -0.000009 -0.000000 21.665012 -0.000000 -3.045000 -0.000000 0.000000 0.000000 0.000058 0.000000 -15.549999 0.000233 -44.999936 -0.000003 -19.070620 0.000002 -19.070711 0.000000 -0.000003 0.000000 -18.782476 0.000004 -18.782463 -54.735620 29.999997 -54.735609 -4.939486 -1.249054 -0.422050 54.735616 30.000004 54.735606 -2.517293 -0.000000 -2.517295 -0.000001 0.000003 0.000001 -1.826101 0.000000 -1.826130 0.000000 0.000000 -0.000000 -8.597705 -0.000016 -5.278141 -0.000000 -0.000002 0.000000 -2.302893 0.000005 -2.302883 0.000000 0.000007 0.000000 -1.960192 0.000008 -1.960197 -0.000000 -0.000005 0.000000 -7.533899 -0.000015 -7.091255 -0.000000 -0.000002 0.000000 -2.425844 0.000006 -2.425838 -0.000000 0.000007 0.000000 -2.089248 0.000009 -2.089256 -0.000000 0.000000 0.000000 -5.804097 -0.000015 -8.321629 -0.000000 -0.000002 -0.000000 -2.291892 0.000006 -2.291884 -0.000000 0.000007 -0.000000 -1.953967 0.000009 -1.953971 0.000000 -0.000005 -0.000000 -3.770288 -0.000015 -8.934925 0.000000 -0.000002 -0.000000 -1.968670 0.000006 -1.968673 0.000000 0.000007 0.000000 -1.410387 -0.000006 -1.410384 0.000000 -0.000005 0.000000 -0.000015 0.000018 9.994126 -0.000107 179.999909 0.000000 41.202618 0.000001 0.000001 -0.000000 -0.000000 0.000000 40.704845 0.000000 -0.000001 -0.000000 0.000006 0.000000 8.953565 12.877192 0.000001 -0.000107 -0.000003 90.000009 5.535667 0.000000 -0.000000 0.000000 -0.000000 -0.000000 0.000015 -0.000010 -9.994124 -0.000107 179.999909 0.000000 41.202602 -0.000000 0.000001 0.000000 0.000000 -0.000001 40.704845 0.000000 -0.000001 -0.000000 0.000006 0.000000 8.953564 12.877185 0.000001 -0.000107 -0.000003 90.000009 5.535667 0.000000 0.000001 0.000000 0.000000 -0.000000 55.280914 0.000000 -0.964944 -0.000008 1.000000 -0.000000 
41.140762 91.473778 117.487007 17.740189 96.674026 75.417159 10.005935 0.000010 0.000013 -5.232737 -0.472586 -3.263917 21.665010 -0.000003 -0.000001 -5.251651 -0.957644 1.219234 25.832996 -0.000008 -0.000002 2.153668 -0.842145 2.327793 14.033597 0.000000 0.000001 2.182348 2.338394 -3.717317 21.600517 -0.000004 0.000002 0.000000 -0.000000 0.000000 21.665014 -0.000005 3.044997 9.481108 -17.983499 -5.065782 -0.000012 0.000020 15.550005 7.404031 -17.317989 21.951361 -19.070642 -0.000007 19.070723 -22.104516 4.369856 -22.104522 -18.782467 0.000002 18.782463 63.032182 -26.974234 -52.288800 -4.939485 -1.249037 0.422057 54.735613 -30.000008 -54.735613 -2.517301 -0.000014 2.517299 -0.000001 -0.000005 0.000000 -1.826113 0.000019 1.826107 -0.000001 -0.000002 -0.000000 -8.597690 0.000007 5.278149 -0.000000 -0.000002 -0.000001 -2.302879 0.000007 2.302879 0.000000 -0.000005 -0.000000 -1.960203 -0.000012 1.960175 0.000000 0.000002 -0.000000 -7.533882 0.000007 7.091274 -0.000000 -0.000002 -0.000000 -2.425851 -0.000007 2.425826 0.000000 -0.000007 -0.000000 -2.089230 0.000005 2.089256 0.000000 -0.000000 -0.000000 -5.804086 0.000003 8.321655 -0.000000 -0.000002 0.000000 -2.291869 0.000011 2.291862 0.000000 -0.000005 -0.000000 -1.953960 -0.000010 1.953980 0.000000 -0.000000 0.000001 -3.770274 0.000005 8.934921 -0.000001 -0.000003 0.000000 -1.968665 0.000009 1.968665 -0.000000 -0.000005 0.000000 -1.410384 0.000010 1.410378 0.000000 0.000000 0.000000 21.665020 -0.000001 -3.045004 3.558577 19.416577 -9.888456 0.000067 0.000005 -15.550011 -23.268359 12.855646 14.508539 -19.070631 -0.000006 -19.070692 19.522450 -3.390401 -19.522458 -18.782482 -0.000001 -18.782469 -46.461897 12.082479 -42.716471 -4.939474 -1.249042 -0.422043 54.735613 30.000001 54.735606 -2.517285 -0.000008 -2.517287 0.000001 -0.000002 0.000001 -1.826104 -0.000001 -1.826100 -0.000000 -0.000002 0.000001 -8.597690 -0.000003 -5.278144 0.000001 -0.000002 -0.000002 -2.302892 0.000001 -2.302882 0.000000 0.000007 -0.000001 -1.960181 0.000000 -1.960197 0.000001 0.000000 0.000000 -7.533893 -0.000002 -7.091251 0.000002 -0.000002 -0.000002 -2.425844 -0.000000 -2.425830 0.000001 0.000007 -0.000001 -2.089226 0.000002 -2.089233 0.000001 0.000003 -0.000001 -5.804089 -0.000003 -8.321635 0.000001 -0.000002 -0.000001 -2.291896 0.000002 -2.291869 -0.000002 0.000007 -0.000001 -1.953974 0.000000 -1.953972 -0.000000 0.000000 -0.000001 -3.770278 -0.000005 -8.934924 0.000002 -0.000002 -0.000002 -1.968663 0.000002 -1.968665 -0.000001 0.000000 0.000000 -1.410382 0.000001 -1.410393 0.000001 0.000000 -0.000000 -0.000015 0.000022 9.994124 -5.685285 177.981889 4.037915 41.202618 -0.000004 0.000004 -0.000000 0.000000 -11.788242 40.704845 -0.000008 -0.000005 -4.307894 0.226232 10.130859 8.953570 12.877174 -0.000002 -2.730288 -1.172248 92.116063 5.535667 0.000000 0.000003 -0.000000 0.000000 -0.000000 0.000009 0.000002 -9.994128 -9.913501 177.488749 3.651361 41.202614 -0.000003 -0.000000 -0.000000 0.000000 -11.488960 40.704842 0.000000 -0.000001 3.129373 -0.078488 11.494288 8.953567 12.877163 -0.000005 2.777268 0.314285 91.744098 5.535675 -0.000001 -0.000001 0.000000 -0.000000 0.000000 55.280914 0.000000 -0.964944 -0.000008 1.000000 -0.000000 
41.199039 91.435280 117.576912 17.005175 96.689428 76.180631 10.005946 0.000006 0.000017 -5.250037 -0.378929 -3.176472 21.664995 -0.000003 0.000004 -5.275461 -0.953639 1.237314 25.832996 -0.000003 0.000001 2.224936 -0.911770 2.037746 14.033597 -0.000006 0.000004 2.240748 2.197872 -3.717546 21.600502 0.000006 -0.000003 0.000000 -0.000000 -0.000000 21.665010 -0.000009 3.045003 9.394135 -17.805712 -5.098194 0.000006 0.000016 15.549999 6.859925 -17.121998 23.304523 -19.070644 -0.000007 19.070713 -23.285209 4.862044 -23.285213 -18.782476 -0.000013 18.782457 62.238822 -27.315129 -52.040048 -4.939508 -1.249041 0.422038 54.735613 -30.000008 -54.735613 -2.517305 -0.000003 2.517306 -0.000001 -0.000009 -0.000000 -1.826111 0.000000 1.826123 0.000000 -0.000002 0.000001 -8.597706 0.000007 5.278130 -0.000000 -0.000003 -0.000000 -2.302885 -0.000003 2.302879 -0.000000 -0.000007 -0.000000 -1.960187 -0.000008 1.960190 0.000000 -0.000002 -0.000000 -7.533905 0.000002 7.091255 -0.000000 -0.000003 -0.000000 -2.425853 -0.000004 2.425841 -0.000000 -0.000007 -0.000000 -2.089246 -0.000003 2.089233 -0.000000 -0.000000 -0.000000 -5.804106 0.000007 8.321625 -0.000000 -0.000003 -0.000000 -2.291862 -0.000001 2.291870 -0.000000 -0.000007 -0.000000 -1.953967 -0.000014 1.953979 0.000000 -0.000002 -0.000000 -3.770300 0.000013 8.934906 -0.000000 -0.000002 -0.000000 -1.968663 -0.000002 1.968665 -0.000000 -0.000007 -0.000000 -1.410388 -0.000007 1.410378 0.000000 -0.000000 -0.000000 21.665010 -0.000008 -3.045002 3.770864 19.224230 -9.930719 0.000042 0.000005 -15.549995 -22.490554 13.048521 16.878863 -19.070644 0.000002 -19.070726 20.461157 -3.731257 -20.461167 -18.782473 0.000019 -18.782463 -46.531839 13.252637 -43.524383 -4.939502 -1.249042 -0.422030 54.735620 30.000004 54.735606 -2.517300 0.000004 -2.517299 -0.000002 0.000000 0.000001 -1.826113 0.000016 -1.826107 -0.000001 0.000000 0.000001 -8.597706 -0.000002 -5.278122 -0.000000 -0.000005 0.000001 -2.302892 0.000001 -2.302890 -0.000000 -0.000003 0.000001 -1.960194 0.000002 -1.960197 0.000000 -0.000003 0.000003 -7.533909 -0.000001 -7.091236 0.000002 -0.000005 0.000001 -2.425843 -0.000001 -2.425830 0.000001 0.000007 0.000001 -2.089243 0.000001 -2.089249 0.000002 -0.000007 0.000000 -5.804103 -0.000002 -8.321613 -0.000000 -0.000005 0.000001 -2.291888 -0.000000 -2.291884 0.000000 -0.000003 -0.000000 -1.953955 0.000004 -1.953987 -0.000001 -0.000003 0.000001 -3.770290 -0.000003 -8.934910 -0.000000 -0.000005 0.000002 -1.968663 0.000001 -1.968672 -0.000001 -0.000003 0.000001 -1.410373 -0.000001 -1.410393 0.000003 -0.000003 -0.000001 -0.000008 0.000017 9.994128 -5.782033 178.011723 4.390444 41.202610 -0.000009 -0.000001 0.000000 0.000000 -12.542333 40.704845 0.000003 -0.000002 -4.418018 0.287523 10.483404 8.953569 12.877179 -0.000004 -2.767977 -1.193864 92.269326 5.535683 0.000000 -0.000003 -0.000000 0.000000 0.000000 0.000018 -0.000011 -9.994125 -9.940137 177.529730 3.731198 41.202610 -0.000006 0.000001 -0.000000 0.000000 -11.738292 40.704845 0.000002 -0.000001 3.129283 -0.026723 11.661465 8.953568 12.877183 -0.000001 2.810375 0.324835 91.754910 5.535667 -0.000000 0.000001 0.000000 0.000000 -0.000000 55.280914 0.000000 -0.964944 -0.000008 1.000000 -0.000000 
41.252602 91.391479 117.676620 16.104439 96.714318 77.103137 10.005937 -0.000002 0.000015 -5.287973 -0.286862 -3.089377 21.664997 -0.000001 0.000001 -5.321277 -0.947177 1.256767 25.833012 0.000006 0.000007 2.298301 -0.971177 1.766230 14.033605 0.000015 -0.000003 2.305558 2.120953 -3.742383 21.600494 -0.000003 -0.000000 -0.000000 0.000000 -0.000000 21.665003 0.000002 3.045007 9.315997 -17.605666 -5.127400 0.000018 0.000006 15.549997 6.310263 -16.875724 24.690321 -19.070652 0.000008 19.070726 -24.449815 5.375299 -24.449822 -18.782459 0.000001 18.782471 61.045854 -27.635989 -52.219498 -4.939489 -1.249037 0.422047 54.735609 -30.000008 -54.735606 -2.517309 -0.000011 2.517303 -0.000000 -0.000005 -0.000000 -1.826109 -0.000010 1.826107 -0.000000 -0.000003 0.000001 -8.597691 0.000010 5.278133 0.000001 -0.000002 0.000000 -2.302879 -0.000006 2.302879 0.000001 -0.000009 0.000000 -1.960183 -0.000006 1.960197 -0.000000 -0.000003 0.000000 -7.533888 0.000003 7.091251 0.000001 -0.000002 0.000000 -2.425838 -0.000006 2.425857 0.000001 -0.000007 0.000000 -2.089228 0.000007 2.089233 0.000000 -0.000003 0.000000 -5.804093 0.000005 8.321640 0.000001 -0.000002 0.000000 -2.291878 0.000007 2.291854 -0.000000 -0.000009 -0.000000 -1.953976 -0.000003 1.953972 0.000000 -0.000002 0.000000 -3.770282 0.000002 8.934906 0.000001 -0.000003 0.000000 -1.968676 0.000002 1.968651 -0.000001 -0.000005 0.000000 -1.410375 0.000012 1.410370 0.000000 -0.000002 0.000000 21.665016 0.000008 -3.044994 3.951243 19.050451 -9.963480 0.000054 0.000008 -15.549992 -21.968089 13.217120 19.043194 -19.070637 0.000003 -19.070717 21.471781 -4.117629 -21.471787 -18.782461 0.000030 -18.782463 -46.561222 14.350733 -44.251361 -4.939481 -1.249042 -0.422059 54.735616 30.000008 54.735609 -2.517299 -0.000009 -2.517314 -0.000002 0.000009 -0.000000 -1.826120 0.000005 -1.826110 0.000000 -0.000002 -0.000001 -8.597689 0.000001 -5.278141 0.000000 -0.000003 0.000001 -2.302897 -0.000004 -2.302890 -0.000001 0.000003 -0.000000 -1.960200 -0.000002 -1.960213 -0.000000 -0.000005 0.000002 -7.533886 -0.000001 -7.091270 0.000000 -0.000002 0.000002 -2.425825 -0.000003 -2.425846 -0.000000 0.000005 -0.000002 -2.089238 0.000001 -2.089256 -0.000002 0.000000 0.000000 -5.804083 0.000001 -8.321637 0.000000 -0.000003 0.000002 -2.291874 0.000002 -2.291884 -0.000001 0.000003 -0.000001 -1.953976 0.000002 -1.953979 -0.000002 -0.000002 -0.000000 -3.770276 -0.000002 -8.934933 0.000001 -0.000003 0.000001 -1.968653 0.000003 -1.968657 -0.000001 0.000002 0.000000 -1.410371 -0.000002 -1.410393 0.000000 -0.000003 -0.000000 -0.000018 0.000014 9.994128 -5.945960 178.061980 4.779498 41.202602 -0.000005 -0.000001 0.000000 -0.000000 -13.399042 40.704857 0.000010 -0.000004 -4.552868 0.328740 10.855381 8.953567 12.877178 0.000001 -2.776826 -1.204929 92.410322 5.535683 -0.000000 0.000007 -0.000000 -0.000000 0.000000 0.000016 -0.000011 -9.994123 -9.980958 177.587814 3.807124 41.202602 -0.000006 -0.000002 -0.000000 0.000000 -12.014860 40.704838 0.000010 0.000001 3.130991 -0.006672 11.830171 8.953563 12.877176 -0.000003 2.840974 0.336865 91.798070 5.535667 0.000000 -0.000003 -0.000000 -0.000000 0.000000 55.280914 0.000000 -0.964944 -0.000008 1.000000 -0.000000 
